# xmcd
#
# Track frame offsets:
#	150
#	7080
#	41420
#	64125
#	89280
#	117685
#	133840
#	169070
#	177020
#
# Disc length: 2740 seconds
#
# Revision: 4
# Processed by: cddbd v1.5.1PL0 Copyright (c) Steve Scherf et al.
# Submitted via: EasyCDDAExtractor 5.1.0
#
DISCID=790ab209
DTITLE=Black Sabbath - The Apollo Theater Glasgow 14-05-80 Disc 1
DYEAR=1980
DGENRE=Hard Rock
TTITLE0=Supertzar
TTITLE1=War Pigs
TTITLE2=Neon Knights
TTITLE3=NIB
TTITLE4=Lonely Is The Word
TTITLE5=Sweet Leaf
TTITLE6=Drum Solo
TTITLE7=Sweet Leaf Reprise
TTITLE8=Children Of The Sea
EXTD=
EXTT0=
EXTT1=
EXTT2=
EXTT3=
EXTT4=
EXTT5=
EXTT6=
EXTT7=
EXTT8=
PLAYORDER=
